<?xml version="1.0" encoding="UTF-8"?>
<!--Generator: Apple Native CoreSVG 123-->
<!DOCTYPE svg
PUBLIC "-//W3C//DTD SVG 1.1//EN"
       "http://www.w3.org/Graphics/SVG/1.1/DTD/svg11.dtd">
<svg version="1.1" xmlns="http://www.w3.org/2000/svg" xmlns:xlink="http://www.w3.org/1999/xlink" width="3300" height="2200">
 <!--glyph: "uni10079F.medium", point size: 100.000000, font version: "Version 15.0d7e11", template writer version: "5"-->
 <g id="Notes">
  <rect height="2200" id="artboard" style="fill:white;opacity:1" width="3300" x="0" y="0"/>
  <line id="" style="fill:none;stroke:black;opacity:1;stroke-width:0.5;" x1="263" x2="3036" y1="292" y2="292"/>
  <text style="stroke:none;fill:black;font-family:-apple-system,&quot;SF Pro Display&quot;,&quot;SF Pro Text&quot;,Helvetica,sans-serif;font-weight:bold;" transform="matrix(1 0 0 1 263 322)">Weight/Scale Variations</text>
  <text style="stroke:none;fill:black;font-family:-apple-system,&quot;SF Pro Display&quot;,&quot;SF Pro Text&quot;,Helvetica,sans-serif;text-anchor:middle;" transform="matrix(1 0 0 1 559.711 322)">Ultralight</text>
  <text style="stroke:none;fill:black;font-family:-apple-system,&quot;SF Pro Display&quot;,&quot;SF Pro Text&quot;,Helvetica,sans-serif;text-anchor:middle;" transform="matrix(1 0 0 1 856.422 322)">Thin</text>
  <text style="stroke:none;fill:black;font-family:-apple-system,&quot;SF Pro Display&quot;,&quot;SF Pro Text&quot;,Helvetica,sans-serif;text-anchor:middle;" transform="matrix(1 0 0 1 1153.13 322)">Light</text>
  <text style="stroke:none;fill:black;font-family:-apple-system,&quot;SF Pro Display&quot;,&quot;SF Pro Text&quot;,Helvetica,sans-serif;text-anchor:middle;" transform="matrix(1 0 0 1 1449.84 322)">Regular</text>
  <text style="stroke:none;fill:black;font-family:-apple-system,&quot;SF Pro Display&quot;,&quot;SF Pro Text&quot;,Helvetica,sans-serif;text-anchor:middle;" transform="matrix(1 0 0 1 1746.56 322)">Medium</text>
  <text style="stroke:none;fill:black;font-family:-apple-system,&quot;SF Pro Display&quot;,&quot;SF Pro Text&quot;,Helvetica,sans-serif;text-anchor:middle;" transform="matrix(1 0 0 1 2043.27 322)">Semibold</text>
  <text style="stroke:none;fill:black;font-family:-apple-system,&quot;SF Pro Display&quot;,&quot;SF Pro Text&quot;,Helvetica,sans-serif;text-anchor:middle;" transform="matrix(1 0 0 1 2339.98 322)">Bold</text>
  <text style="stroke:none;fill:black;font-family:-apple-system,&quot;SF Pro Display&quot;,&quot;SF Pro Text&quot;,Helvetica,sans-serif;text-anchor:middle;" transform="matrix(1 0 0 1 2636.69 322)">Heavy</text>
  <text style="stroke:none;fill:black;font-family:-apple-system,&quot;SF Pro Display&quot;,&quot;SF Pro Text&quot;,Helvetica,sans-serif;text-anchor:middle;" transform="matrix(1 0 0 1 2933.4 322)">Black</text>
  <line id="" style="fill:none;stroke:black;opacity:1;stroke-width:0.5;" x1="263" x2="3036" y1="1903" y2="1903"/>
  <g id="" transform="matrix(1 0 0 1 263 1933)">
   <path d="M 9.24805 0.830078 C 13.5547 0.830078 17.1387 -2.74414 17.1387 -7.05078 C 17.1387 -11.3574 13.5449 -14.9316 9.23828 -14.9316 C 4.94141 -14.9316 1.36719 -11.3574 1.36719 -7.05078 C 1.36719 -2.74414 4.95117 0.830078 9.24805 0.830078 Z M 9.24805 -0.654297 C 5.70312 -0.654297 2.87109 -3.49609 2.87109 -7.05078 C 2.87109 -10.6055 5.69336 -13.4473 9.23828 -13.4473 C 12.793 -13.4473 15.6348 -10.6055 15.6445 -7.05078 C 15.6543 -3.49609 12.8027 -0.654297 9.24805 -0.654297 Z M 9.22852 -3.42773 C 9.69727 -3.42773 9.9707 -3.74023 9.9707 -4.25781 L 9.9707 -6.31836 L 12.1973 -6.31836 C 12.6953 -6.31836 13.0371 -6.57227 13.0371 -7.04102 C 13.0371 -7.51953 12.7148 -7.7832 12.1973 -7.7832 L 9.9707 -7.7832 L 9.9707 -10.0098 C 9.9707 -10.5273 9.69727 -10.8496 9.22852 -10.8496 C 8.75977 -10.8496 8.50586 -10.5078 8.50586 -10.0098 L 8.50586 -7.7832 L 6.29883 -7.7832 C 5.78125 -7.7832 5.44922 -7.51953 5.44922 -7.04102 C 5.44922 -6.57227 5.80078 -6.31836 6.29883 -6.31836 L 8.50586 -6.31836 L 8.50586 -4.25781 C 8.50586 -3.75977 8.75977 -3.42773 9.22852 -3.42773 Z"/>
  </g>
  <g id="" transform="matrix(1 0 0 1 281.506 1933)">
   <path d="M 11.709 2.91016 C 17.1582 2.91016 21.6699 -1.60156 21.6699 -7.05078 C 21.6699 -12.4902 17.1484 -17.0117 11.6992 -17.0117 C 6.25977 -17.0117 1.74805 -12.4902 1.74805 -7.05078 C 1.74805 -1.60156 6.26953 2.91016 11.709 2.91016 Z M 11.709 1.25 C 7.09961 1.25 3.41797 -2.44141 3.41797 -7.05078 C 3.41797 -11.6504 7.08984 -15.3516 11.6992 -15.3516 C 16.3086 -15.3516 20 -11.6504 20.0098 -7.05078 C 20.0195 -2.44141 16.3184 1.25 11.709 1.25 Z M 11.6895 -2.41211 C 12.207 -2.41211 12.5195 -2.77344 12.5195 -3.33984 L 12.5195 -6.23047 L 15.5762 -6.23047 C 16.123 -6.23047 16.5039 -6.51367 16.5039 -7.03125 C 16.5039 -7.55859 16.1426 -7.86133 15.5762 -7.86133 L 12.5195 -7.86133 L 12.5195 -10.9277 C 12.5195 -11.5039 12.207 -11.8555 11.6895 -11.8555 C 11.1719 -11.8555 10.8789 -11.4844 10.8789 -10.9277 L 10.8789 -7.86133 L 7.83203 -7.86133 C 7.26562 -7.86133 6.89453 -7.55859 6.89453 -7.03125 C 6.89453 -6.51367 7.28516 -6.23047 7.83203 -6.23047 L 10.8789 -6.23047 L 10.8789 -3.33984 C 10.8789 -2.79297 11.1719 -2.41211 11.6895 -2.41211 Z"/>
  </g>
  <g id="" transform="matrix(1 0 0 1 304.924 1933)">
   <path d="M 14.9707 5.67383 C 21.9336 5.67383 27.6953 -0.078125 27.6953 -7.04102 C 27.6953 -14.0039 21.9238 -19.7559 14.9609 -19.7559 C 8.00781 -19.7559 2.25586 -14.0039 2.25586 -7.04102 C 2.25586 -0.078125 8.01758 5.67383 14.9707 5.67383 Z M 14.9707 3.85742 C 8.93555 3.85742 4.08203 -1.00586 4.08203 -7.04102 C 4.08203 -13.0762 8.92578 -17.9395 14.9609 -17.9395 C 21.0059 -17.9395 25.8594 -13.0762 25.8691 -7.04102 C 25.8789 -1.00586 21.0156 3.85742 14.9707 3.85742 Z M 14.9512 -1.06445 C 15.5176 -1.06445 15.8691 -1.45508 15.8691 -2.06055 L 15.8691 -6.13281 L 20.1074 -6.13281 C 20.6934 -6.13281 21.1133 -6.46484 21.1133 -7.02148 C 21.1133 -7.59766 20.7227 -7.93945 20.1074 -7.93945 L 15.8691 -7.93945 L 15.8691 -12.1875 C 15.8691 -12.8027 15.5176 -13.1934 14.9512 -13.1934 C 14.3848 -13.1934 14.0625 -12.7832 14.0625 -12.1875 L 14.0625 -7.93945 L 9.83398 -7.93945 C 9.21875 -7.93945 8.80859 -7.59766 8.80859 -7.02148 C 8.80859 -6.46484 9.23828 -6.13281 9.83398 -6.13281 L 14.0625 -6.13281 L 14.0625 -2.06055 C 14.0625 -1.47461 14.3848 -1.06445 14.9512 -1.06445 Z"/>
  </g>
  <text style="stroke:none;fill:black;font-family:-apple-system,&quot;SF Pro Display&quot;,&quot;SF Pro Text&quot;,Helvetica,sans-serif;font-weight:bold;" transform="matrix(1 0 0 1 263 1953)">Design Variations</text>
  <text style="stroke:none;fill:black;font-family:-apple-system,&quot;SF Pro Display&quot;,&quot;SF Pro Text&quot;,Helvetica,sans-serif;" transform="matrix(1 0 0 1 263 1971)">Symbols are supported in up to nine weights and three scales.</text>
  <text style="stroke:none;fill:black;font-family:-apple-system,&quot;SF Pro Display&quot;,&quot;SF Pro Text&quot;,Helvetica,sans-serif;" transform="matrix(1 0 0 1 263 1989)">For optimal layout with text and other symbols, vertically align</text>
  <text style="stroke:none;fill:black;font-family:-apple-system,&quot;SF Pro Display&quot;,&quot;SF Pro Text&quot;,Helvetica,sans-serif;" transform="matrix(1 0 0 1 263 2007)">symbols with the adjacent text.</text>
  <rect height="14" id="" style="fill:#00AEEF;stroke:none;opacity:0.4;" width="3" x="776" y="1919"/>
  <g id="" transform="matrix(1 0 0 1 779 1933)">
   <path d="M 10.5273 0 L 12.373 0 L 7.17773 -14.0918 L 5.43945 -14.0918 L 0.244141 0 L 2.08984 0 L 3.50586 -4.0332 L 9.11133 -4.0332 Z M 6.2793 -11.9531 L 6.33789 -11.9531 L 8.59375 -5.52734 L 4.02344 -5.52734 Z"/>
  </g>
  <rect height="14" id="" style="fill:#00AEEF;stroke:none;opacity:0.4;" width="3" x="791.617" y="1919"/>
  <text style="stroke:none;fill:black;font-family:-apple-system,&quot;SF Pro Display&quot;,&quot;SF Pro Text&quot;,Helvetica,sans-serif;font-weight:bold;" transform="matrix(1 0 0 1 776 1953)">Margins</text>
  <text style="stroke:none;fill:black;font-family:-apple-system,&quot;SF Pro Display&quot;,&quot;SF Pro Text&quot;,Helvetica,sans-serif;" transform="matrix(1 0 0 1 776 1971)">Leading and trailing margins on the left and right side of each symbol</text>
  <text style="stroke:none;fill:black;font-family:-apple-system,&quot;SF Pro Display&quot;,&quot;SF Pro Text&quot;,Helvetica,sans-serif;" transform="matrix(1 0 0 1 776 1989)">can be adjusted by modifying the width of the blue rectangles.</text>
  <text style="stroke:none;fill:black;font-family:-apple-system,&quot;SF Pro Display&quot;,&quot;SF Pro Text&quot;,Helvetica,sans-serif;" transform="matrix(1 0 0 1 776 2007)">Modifications are automatically applied proportionally to all</text>
  <text style="stroke:none;fill:black;font-family:-apple-system,&quot;SF Pro Display&quot;,&quot;SF Pro Text&quot;,Helvetica,sans-serif;" transform="matrix(1 0 0 1 776 2025)">scales and weights.</text>
  <g id="" transform="matrix(1 0 0 1 1289 1933)">
   <path d="M 2.83203 3.11523 L 4.375 4.6582 C 5.22461 5.48828 6.19141 5.41992 7.06055 4.46289 L 17.2754 -6.66016 C 17.7051 -6.36719 18.0957 -6.37695 18.5645 -6.47461 L 19.6094 -6.68945 L 20.3027 -5.99609 L 20.2539 -5.47852 C 20.1855 -4.95117 20.3516 -4.53125 20.8496 -4.0332 L 21.6602 -3.22266 C 22.168 -2.71484 22.8223 -2.68555 23.3008 -3.16406 L 26.5527 -6.41602 C 27.0312 -6.89453 27.0117 -7.54883 26.5039 -8.05664 L 25.6836 -8.87695 C 25.1855 -9.375 24.7754 -9.55078 24.2383 -9.47266 L 23.7109 -9.41406 L 23.0566 -10.0781 L 23.3398 -11.2207 C 23.4863 -11.7871 23.3398 -12.2559 22.7148 -12.8613 L 20.3027 -15.2539 C 16.7578 -18.7793 12.2266 -18.6719 9.11133 -15.5371 C 8.69141 -15.1074 8.64258 -14.5215 8.91602 -14.0918 C 9.15039 -13.7207 9.62891 -13.4961 10.2734 -13.6621 C 11.7871 -14.043 13.3008 -13.9258 14.7852 -12.9199 L 14.1602 -11.3379 C 13.9258 -10.752 13.9453 -10.2734 14.1797 -9.83398 L 3.01758 0.439453 C 2.08008 1.30859 1.97266 2.25586 2.83203 3.11523 Z M 10.6738 -15.1465 C 13.3398 -17.1387 16.6504 -16.8262 19.0527 -14.4141 L 21.6797 -11.8066 C 21.9141 -11.5723 21.9434 -11.3867 21.8848 -11.0938 L 21.5039 -9.53125 L 23.0762 -7.95898 L 24.043 -8.04688 C 24.3262 -8.07617 24.4141 -8.05664 24.6387 -7.83203 L 25.2637 -7.20703 L 22.5098 -4.46289 L 21.8848 -5.07812 C 21.6602 -5.30273 21.6406 -5.40039 21.6699 -5.68359 L 21.7578 -6.64062 L 20.1953 -8.20312 L 18.5742 -7.89062 C 18.291 -7.83203 18.1445 -7.83203 17.9102 -8.07617 L 15.7324 -10.2539 C 15.5078 -10.4883 15.4785 -10.625 15.6055 -10.9473 L 16.5527 -13.2227 C 14.9512 -14.7559 12.8418 -15.6055 10.8008 -14.9512 C 10.7129 -14.9219 10.6445 -14.9414 10.6152 -14.9805 C 10.5859 -15.0293 10.5859 -15.0781 10.6738 -15.1465 Z M 4.10156 2.41211 C 3.61328 1.91406 3.78906 1.61133 4.12109 1.30859 L 15.0781 -8.80859 L 16.3086 -7.57812 L 6.15234 3.34961 C 5.84961 3.68164 5.46875 3.7793 5.06836 3.37891 Z"/>
  </g>
  <text style="stroke:none;fill:black;font-family:-apple-system,&quot;SF Pro Display&quot;,&quot;SF Pro Text&quot;,Helvetica,sans-serif;font-weight:bold;" transform="matrix(1 0 0 1 1289 1953)">Exporting</text>
  <text style="stroke:none;fill:black;font-family:-apple-system,&quot;SF Pro Display&quot;,&quot;SF Pro Text&quot;,Helvetica,sans-serif;" transform="matrix(1 0 0 1 1289 1971)">Symbols should be outlined when exporting to ensure the</text>
  <text style="stroke:none;fill:black;font-family:-apple-system,&quot;SF Pro Display&quot;,&quot;SF Pro Text&quot;,Helvetica,sans-serif;" transform="matrix(1 0 0 1 1289 1989)">design is preserved when submitting to Xcode.</text>
  <text id="template-version" style="stroke:none;fill:black;font-family:-apple-system,&quot;SF Pro Display&quot;,&quot;SF Pro Text&quot;,Helvetica,sans-serif;text-anchor:end;" transform="matrix(1 0 0 1 3036 1933)">Template v.1.0</text>
  <text style="stroke:none;fill:black;font-family:-apple-system,&quot;SF Pro Display&quot;,&quot;SF Pro Text&quot;,Helvetica,sans-serif;text-anchor:end;" transform="matrix(1 0 0 1 3036 1951)">Generated from exclamationmark.shield</text>
  <text style="stroke:none;fill:black;font-family:-apple-system,&quot;SF Pro Display&quot;,&quot;SF Pro Text&quot;,Helvetica,sans-serif;text-anchor:end;" transform="matrix(1 0 0 1 3036 1969)">Typeset at 100 points</text>
  <text style="stroke:none;fill:black;font-family:-apple-system,&quot;SF Pro Display&quot;,&quot;SF Pro Text&quot;,Helvetica,sans-serif;" transform="matrix(1 0 0 1 263 726)">Small</text>
  <text style="stroke:none;fill:black;font-family:-apple-system,&quot;SF Pro Display&quot;,&quot;SF Pro Text&quot;,Helvetica,sans-serif;" transform="matrix(1 0 0 1 263 1156)">Medium</text>
  <text style="stroke:none;fill:black;font-family:-apple-system,&quot;SF Pro Display&quot;,&quot;SF Pro Text&quot;,Helvetica,sans-serif;" transform="matrix(1 0 0 1 263 1586)">Large</text>
 </g>
 <g id="Guides">
  <g id="H-reference" style="fill:#27AAE1;stroke:none;" transform="matrix(1 0 0 1 339 696)">
   <path d="M 54.9316 0 L 57.666 0 L 30.5664 -70.459 L 28.0762 -70.459 L 0.976562 0 L 3.66211 0 L 12.9395 -24.4629 L 45.7031 -24.4629 Z M 29.1992 -67.0898 L 29.4434 -67.0898 L 44.8242 -26.709 L 13.8184 -26.709 Z"/>
  </g>
  <line id="Baseline-S" style="fill:none;stroke:#27AAE1;opacity:1;stroke-width:0.577;" x1="263" x2="3036" y1="696" y2="696"/>
  <line id="Capline-S" style="fill:none;stroke:#27AAE1;opacity:1;stroke-width:0.577;" x1="263" x2="3036" y1="625.541" y2="625.541"/>
  <g id="H-reference" style="fill:#27AAE1;stroke:none;" transform="matrix(1 0 0 1 339 1126)">
   <path d="M 54.9316 0 L 57.666 0 L 30.5664 -70.459 L 28.0762 -70.459 L 0.976562 0 L 3.66211 0 L 12.9395 -24.4629 L 45.7031 -24.4629 Z M 29.1992 -67.0898 L 29.4434 -67.0898 L 44.8242 -26.709 L 13.8184 -26.709 Z"/>
  </g>
  <line id="Baseline-M" style="fill:none;stroke:#27AAE1;opacity:1;stroke-width:0.577;" x1="263" x2="3036" y1="1126" y2="1126"/>
  <line id="Capline-M" style="fill:none;stroke:#27AAE1;opacity:1;stroke-width:0.577;" x1="263" x2="3036" y1="1055.54" y2="1055.54"/>
  <g id="H-reference" style="fill:#27AAE1;stroke:none;" transform="matrix(1 0 0 1 339 1556)">
   <path d="M 54.9316 0 L 57.666 0 L 30.5664 -70.459 L 28.0762 -70.459 L 0.976562 0 L 3.66211 0 L 12.9395 -24.4629 L 45.7031 -24.4629 Z M 29.1992 -67.0898 L 29.4434 -67.0898 L 44.8242 -26.709 L 13.8184 -26.709 Z"/>
  </g>
  <line id="Baseline-L" style="fill:none;stroke:#27AAE1;opacity:1;stroke-width:0.577;" x1="263" x2="3036" y1="1556" y2="1556"/>
  <line id="Capline-L" style="fill:none;stroke:#27AAE1;opacity:1;stroke-width:0.577;" x1="263" x2="3036" y1="1485.54" y2="1485.54"/>
  <rect height="119.336" id="left-margin" style="fill:#00AEEF;stroke:none;opacity:0.4;" width="18.7988" x="1390.47" y="1030.79"/>
  <rect height="119.336" id="right-margin" style="fill:#00AEEF;stroke:none;opacity:0.4;" width="18.7988" x="1490.42" y="1030.79"/>
 </g>
 <g id="Symbols">
  <g id="Black-L" transform="matrix(1 0 0 1 2856.81 1556)">
   <path d="M 76.5625 31.6895 C 77.9785 31.6895 79.9316 31.1035 81.6406 30.2734 C 119.287 11.6699 132.91 0.634766 132.91 -22.5586 L 132.91 -68.3105 C 132.91 -78.6621 129.736 -83.2031 120.508 -87.1582 C 115.234 -89.4531 92.2852 -96.8262 87.5977 -98.2422 C 84.2285 -99.2676 79.8828 -99.9023 76.5625 -99.9023 C 73.291 -99.9023 68.9453 -99.1699 65.5762 -98.2422 C 60.8887 -97.0215 37.8906 -89.4043 32.666 -87.1582 C 23.4375 -83.2031 20.2637 -78.6621 20.2637 -68.3105 L 20.2637 -22.5586 C 20.2637 0.634766 33.8867 11.6699 71.4844 30.2734 C 73.1934 31.1035 75.1953 31.6895 76.5625 31.6895 Z M 76.5625 11.7676 C 76.0254 11.7676 75.5371 11.6699 73.8281 10.5957 C 46.0938 -6.5918 38.6719 -9.81445 38.6719 -25.0977 L 38.6719 -66.0156 C 38.6719 -68.3594 39.2578 -69.3848 40.9668 -70.1172 C 49.6582 -73.6328 65.7715 -78.8574 70.752 -80.6152 C 73.5352 -81.4941 75 -81.8359 76.5625 -81.8359 C 78.1738 -81.8359 79.6387 -81.4941 82.4219 -80.6152 C 87.3535 -78.8574 103.467 -73.4863 112.207 -70.1172 C 113.916 -69.4336 114.502 -68.3594 114.502 -66.0156 L 114.502 -25.0977 C 114.502 -9.32617 105.664 -4.73633 79.3457 10.5957 C 77.6367 11.6211 77.1484 11.7676 76.5625 11.7676 Z M 76.6602 -29.1016 C 81.4453 -29.1016 84.2773 -31.7383 84.5703 -36.7676 L 85.6445 -58.3496 C 85.8398 -63.623 82.1777 -67.2363 76.5625 -67.2363 C 70.9473 -67.2363 67.2852 -63.6719 67.4805 -58.3984 L 68.5547 -36.6211 C 68.8477 -31.7383 71.7285 -29.1016 76.6602 -29.1016 Z M 76.6602 -6.68945 C 82.0801 -6.68945 86.084 -9.86328 86.084 -14.9902 C 86.084 -20.0684 82.0801 -23.291 76.6602 -23.291 C 71.1914 -23.291 67.0898 -20.1172 67.0898 -14.9902 C 67.0898 -9.86328 71.2402 -6.68945 76.6602 -6.68945 Z"/>
  </g>
  <g id="Heavy-L" transform="matrix(1 0 0 1 2560.42 1556)">
   <path d="M 76.2695 31.1523 C 77.5879 31.1523 79.4922 30.6152 81.1523 29.7852 C 118.262 10.7422 131.445 0.439453 131.445 -22.5098 L 131.445 -68.75 C 131.445 -78.2715 128.418 -82.2266 120.068 -85.8398 C 114.062 -88.3789 91.4551 -95.8496 85.8887 -97.6562 C 82.9102 -98.5352 79.1992 -99.1211 76.2695 -99.1211 C 73.3398 -99.1211 69.6289 -98.4375 66.6504 -97.6562 C 61.084 -96.0938 38.4766 -88.3301 32.4707 -85.8398 C 24.1211 -82.2754 21.0938 -78.2715 21.0938 -68.75 L 21.0938 -22.5098 C 21.0938 0.439453 34.3262 10.6934 71.3867 29.7852 C 73.0469 30.6152 74.9512 31.1523 76.2695 31.1523 Z M 76.2695 13.6719 C 75.5859 13.6719 74.9512 13.4277 73.291 12.4023 C 45.166 -4.98047 37.1582 -8.69141 37.1582 -24.9023 L 37.1582 -66.6504 C 37.1582 -69.0918 37.6953 -70.166 39.5508 -70.8984 C 48.2422 -74.4141 65.2832 -80.0293 71.1426 -82.2266 C 73.5352 -82.959 74.9023 -83.3008 76.2695 -83.3008 C 77.6367 -83.3008 79.0039 -82.959 81.3965 -82.2266 C 87.2559 -80.0293 104.199 -74.2188 112.988 -70.8984 C 114.844 -70.166 115.381 -69.0918 115.381 -66.6504 L 115.381 -24.9023 C 115.381 -8.30078 106.25 -3.56445 79.248 12.4023 C 77.5879 13.4277 76.9531 13.6719 76.2695 13.6719 Z M 76.3184 -27.8809 C 80.6152 -27.8809 83.1543 -30.2734 83.3496 -34.7656 L 84.375 -59.1797 C 84.5215 -63.916 81.2012 -67.1387 76.2207 -67.1387 C 71.2402 -67.1387 67.9688 -63.916 68.1152 -59.2285 L 69.1406 -34.668 C 69.3359 -30.2734 71.9238 -27.8809 76.3184 -27.8809 Z M 76.3184 -6.10352 C 81.25 -6.10352 84.9609 -9.13086 84.9609 -13.8184 C 84.9609 -18.5059 81.25 -21.582 76.3184 -21.582 C 71.3379 -21.582 67.5781 -18.5547 67.5781 -13.8184 C 67.5781 -9.13086 71.3867 -6.10352 76.3184 -6.10352 Z"/>
  </g>
  <g id="Bold-L" transform="matrix(1 0 0 1 2264.05 1556)">
   <path d="M 75.9277 30.5664 C 77.1484 30.5664 78.9551 30.0293 80.5664 29.1992 C 117.09 9.76562 129.883 0.244141 129.883 -22.4121 L 129.883 -69.2871 C 129.883 -77.832 126.953 -81.1523 119.531 -84.3262 C 112.695 -87.1582 90.5273 -94.7754 83.9844 -96.9238 C 81.4453 -97.7051 78.418 -98.2422 75.9277 -98.2422 C 73.3887 -98.2422 70.3613 -97.6074 67.8711 -96.9238 C 61.3281 -95.0195 39.1113 -87.1094 32.2754 -84.3262 C 24.8535 -81.2012 21.9727 -77.832 21.9727 -69.2871 L 21.9727 -22.4121 C 21.9727 0.244141 34.7656 9.66797 71.2891 29.1992 C 72.9004 30.0293 74.6582 30.5664 75.9277 30.5664 Z M 75.9277 15.7227 C 75.1465 15.7227 74.3164 15.4297 72.6562 14.4043 C 44.1895 -3.17383 35.4492 -7.37305 35.4492 -24.6582 L 35.4492 -67.3828 C 35.4492 -69.9219 35.9863 -70.9961 37.9395 -71.7773 C 46.6797 -75.293 64.6973 -81.3477 71.582 -83.9844 C 73.5352 -84.6191 74.7559 -84.9121 75.9277 -84.9121 C 77.0508 -84.9121 78.2715 -84.6191 80.2246 -83.9844 C 87.1582 -81.3477 105.029 -75.0488 113.916 -71.7773 C 115.82 -71.0449 116.406 -69.9219 116.406 -67.3828 L 116.406 -24.6582 C 116.406 -7.12891 106.934 -2.29492 79.1992 14.4043 C 77.5391 15.4297 76.709 15.7227 75.9277 15.7227 Z M 75.9277 -26.5137 C 79.6387 -26.5137 81.8359 -28.6133 81.9824 -32.5684 L 82.959 -60.1074 C 83.0566 -64.1602 80.1758 -67.041 75.8789 -67.041 C 71.582 -67.041 68.7012 -64.209 68.8477 -60.1562 L 69.7754 -32.5195 C 69.9219 -28.6621 72.1191 -26.5137 75.9277 -26.5137 Z M 75.9277 -5.37109 C 80.3223 -5.37109 83.7402 -8.30078 83.7402 -12.5488 C 83.7402 -16.748 80.3711 -19.6777 75.9277 -19.6777 C 71.5332 -19.6777 68.0664 -16.748 68.0664 -12.5488 C 68.0664 -8.34961 71.582 -5.37109 75.9277 -5.37109 Z"/>
  </g>
  <g id="Semibold-L" transform="matrix(1 0 0 1 1967.58 1556)">
   <path d="M 75.6836 30.1758 C 76.8555 30.1758 78.6133 29.6387 80.1758 28.8086 C 116.309 9.08203 128.76 0.0976562 128.76 -22.3633 L 128.76 -69.6777 C 128.76 -77.5391 125.977 -80.4199 119.189 -83.3008 C 111.816 -86.3281 89.8926 -93.9941 82.666 -96.4355 C 80.4688 -97.168 77.8809 -97.6562 75.6836 -97.6562 C 73.4375 -97.6562 70.8984 -97.0703 68.7012 -96.4355 C 61.4746 -94.2871 39.5508 -86.2793 32.1777 -83.3008 C 25.3906 -80.4688 22.6074 -77.5391 22.6074 -69.6777 L 22.6074 -22.3633 C 22.6074 0.0976562 35.1074 8.93555 71.1914 28.8086 C 72.7539 29.6387 74.4629 30.1758 75.6836 30.1758 Z M 75.6836 17.1875 C 74.8047 17.1875 73.877 16.7969 72.2168 15.8203 C 43.5059 -1.9043 34.2773 -6.49414 34.2773 -24.5117 L 34.2773 -67.8711 C 34.2773 -70.5078 34.8145 -71.582 36.8164 -72.3633 C 45.6055 -75.8789 64.3066 -82.2754 71.875 -85.2051 C 73.5352 -85.791 74.6582 -86.0352 75.6836 -86.0352 C 76.6602 -86.0352 77.7832 -85.791 79.4434 -85.2051 C 87.0605 -82.2754 105.615 -75.5859 114.502 -72.3633 C 116.553 -71.6309 117.09 -70.5078 117.09 -67.8711 L 117.09 -24.5117 C 117.09 -6.34766 107.373 -1.41602 79.1016 15.8203 C 77.4902 16.7969 76.5625 17.1875 75.6836 17.1875 Z M 75.6836 -25.5859 C 79.0039 -25.5859 80.957 -27.4902 81.0547 -31.0547 L 81.9824 -60.791 C 82.0801 -64.3555 79.3945 -66.9434 75.6348 -66.9434 C 71.8262 -66.9434 69.2383 -64.4043 69.3359 -60.791 L 70.2148 -31.0059 C 70.3125 -27.5391 72.2656 -25.5859 75.6836 -25.5859 Z M 75.6836 -4.93164 C 79.6875 -4.93164 82.9102 -7.71484 82.9102 -11.6211 C 82.9102 -15.5273 79.7363 -18.3594 75.6836 -18.3594 C 71.6309 -18.3594 68.4082 -15.5273 68.4082 -11.6211 C 68.4082 -7.76367 71.6797 -4.93164 75.6836 -4.93164 Z"/>
  </g>
  <g id="Medium-L" transform="matrix(1 0 0 1 1671.07 1556)">
   <path d="M 75.4883 29.834 C 76.6602 29.834 78.3203 29.3457 79.834 28.5156 C 115.723 8.54492 127.93 0 127.93 -22.3145 L 127.93 -69.9707 C 127.93 -77.2949 125.195 -79.8828 118.945 -82.5195 C 111.084 -85.6934 89.4043 -93.457 81.6406 -96.0938 C 79.6875 -96.7285 77.4902 -97.168 75.4883 -97.168 C 73.4863 -97.168 71.2891 -96.6309 69.3359 -96.0938 C 61.6211 -93.7012 39.8926 -85.6445 32.0801 -82.5195 C 25.7812 -79.9316 23.0469 -77.2949 23.0469 -69.9707 L 23.0469 -22.3145 C 23.0469 0 35.3516 8.39844 71.1426 28.5156 C 72.6562 29.3457 74.3164 29.834 75.4883 29.834 Z M 75.4883 18.2617 C 74.5605 18.2617 73.5352 17.8711 71.9238 16.8457 C 42.9688 -0.976562 33.3984 -5.81055 33.3984 -24.3652 L 33.3984 -68.2617 C 33.3984 -70.9473 33.9355 -72.0215 35.9863 -72.8516 C 44.7754 -76.3672 64.0137 -82.959 72.1191 -86.1328 C 73.5352 -86.6699 74.6094 -86.9141 75.4883 -86.9141 C 76.3672 -86.9141 77.4414 -86.6211 78.8574 -86.1328 C 86.9629 -82.959 106.055 -76.0254 114.99 -72.8516 C 117.041 -72.0703 117.578 -70.9473 117.578 -68.2617 L 117.578 -24.3652 C 117.578 -5.76172 107.715 -0.732422 79.0527 16.8457 C 77.4414 17.8711 76.416 18.2617 75.4883 18.2617 Z M 75.4883 -24.8535 C 78.5156 -24.8535 80.2734 -26.6113 80.3711 -29.8828 L 81.2012 -61.2793 C 81.2988 -64.5508 78.8574 -66.8945 75.4395 -66.8945 C 71.9727 -66.8945 69.6289 -64.5508 69.7266 -61.2793 L 70.5078 -29.8828 C 70.6055 -26.6602 72.4121 -24.8535 75.4883 -24.8535 Z M 75.4883 -4.54102 C 79.1992 -4.54102 82.2754 -7.32422 82.2754 -10.9375 C 82.2754 -14.6484 79.248 -17.3828 75.4883 -17.3828 C 71.7285 -17.3828 68.7012 -14.5996 68.7012 -10.9375 C 68.7012 -7.37305 71.7773 -4.54102 75.4883 -4.54102 Z"/>
  </g>
  <g id="Regular-L" transform="matrix(1 0 0 1 1374.6 1556)">
   <path d="M 75.2441 29.4434 C 76.3672 29.4434 77.9785 29.0039 79.4434 28.125 C 114.941 7.86133 126.807 -0.146484 126.807 -22.2656 L 126.807 -70.3125 C 126.807 -77.002 124.17 -79.1504 118.555 -81.4941 C 110.156 -84.8633 88.7695 -92.7246 80.3711 -95.6055 C 78.7109 -96.1914 76.9531 -96.582 75.2441 -96.582 C 73.5352 -96.582 71.8262 -96.0938 70.166 -95.6055 C 61.7676 -92.9688 40.332 -84.8145 31.9336 -81.4941 C 26.3184 -79.248 23.6816 -77.002 23.6816 -70.3125 L 23.6816 -22.2656 C 23.6816 -0.146484 35.6934 7.66602 71.0449 28.125 C 72.5586 29.0039 74.1699 29.4434 75.2441 29.4434 Z M 75.2441 19.6777 C 74.2188 19.6777 73.0957 19.2383 71.4844 18.2617 C 42.2852 0.244141 32.2266 -4.93164 32.2266 -24.2188 L 32.2266 -68.75 C 32.2266 -71.5332 32.7637 -72.6074 34.9121 -73.4375 C 43.7012 -76.9531 63.623 -83.8867 72.4121 -87.3535 C 73.5352 -87.793 74.5117 -87.9883 75.2441 -87.9883 C 75.9766 -87.9883 76.9531 -87.793 78.0762 -87.3535 C 86.9141 -83.8867 106.641 -76.6113 115.625 -73.4375 C 117.725 -72.6562 118.262 -71.5332 118.262 -68.75 L 118.262 -24.2188 C 118.262 -4.93164 108.154 0.146484 79.0039 18.2617 C 77.3926 19.2383 76.2695 19.6777 75.2441 19.6777 Z M 75.2441 -23.9258 C 77.8809 -23.9258 79.3945 -25.4883 79.4434 -28.3691 L 80.2734 -61.9141 C 80.3223 -64.7461 78.125 -66.8457 75.1953 -66.8457 C 72.2168 -66.8457 70.166 -64.7949 70.2148 -61.9629 L 70.9473 -28.3691 C 70.9961 -25.5371 72.5586 -23.9258 75.2441 -23.9258 Z M 75.2441 -4.05273 C 78.6133 -4.05273 81.4453 -6.73828 81.4453 -10.0586 C 81.4453 -13.4277 78.6621 -16.0645 75.2441 -16.0645 C 71.875 -16.0645 69.043 -13.3789 69.043 -10.0586 C 69.043 -6.78711 71.9238 -4.05273 75.2441 -4.05273 Z"/>
  </g>
  <g id="Light-L" transform="matrix(1 0 0 1 1079.72 1556)">
   <path d="M 73.4375 28.6133 C 74.6582 28.6133 76.2695 28.0273 77.5879 27.2461 C 112.598 6.68945 123.877 -0.585938 123.877 -21.6309 L 123.877 -69.3848 C 123.877 -76.2207 121.631 -78.418 115.576 -80.8105 C 105.859 -84.668 88.0371 -91.3574 78.2715 -94.7754 C 76.6602 -95.3125 75.0488 -95.7031 73.4375 -95.7031 C 71.7773 -95.7031 70.166 -95.2637 68.5547 -94.7754 C 58.8379 -91.4062 40.9668 -84.6191 31.25 -80.8105 C 25.1953 -78.4668 22.9492 -76.2207 22.9492 -69.3848 L 22.9492 -21.6309 C 22.9492 -0.585938 34.4238 6.39648 69.2383 27.2461 C 70.5566 28.0273 72.168 28.6133 73.4375 28.6133 Z M 73.4375 21.1914 C 72.3633 21.1914 71.1426 20.6055 69.873 19.7754 C 40.5762 1.36719 29.4922 -3.90625 29.4922 -22.9492 L 29.4922 -68.3105 C 29.4922 -71.9727 30.1758 -73.291 32.8613 -74.3652 C 40.6738 -77.4902 62.3047 -85.3516 70.1172 -88.3789 C 71.4355 -88.9648 72.6074 -89.2578 73.4375 -89.2578 C 74.2188 -89.2578 75.3418 -88.916 76.709 -88.3789 C 84.5215 -85.3516 106.055 -77.2461 113.965 -74.3652 C 116.65 -73.3398 117.334 -71.9727 117.334 -68.3105 L 117.334 -22.9492 C 117.334 -3.90625 106.152 1.2207 76.9531 19.7754 C 75.6836 20.6055 74.4629 21.1914 73.4375 21.1914 Z M 73.4375 -23.9746 C 75.4883 -23.9746 76.7578 -25.3418 76.7578 -27.6855 L 77.4414 -61.5723 C 77.4414 -63.8672 75.7812 -65.5273 73.3887 -65.5273 C 70.9961 -65.5273 69.3359 -63.916 69.3848 -61.5723 L 70.0195 -27.6855 C 70.0195 -25.3418 71.2891 -23.9746 73.4375 -23.9746 Z M 73.4375 -4.93164 C 76.3672 -4.93164 78.8086 -7.32422 78.8086 -10.2051 C 78.8086 -13.1348 76.3672 -15.4785 73.4375 -15.4785 C 70.459 -15.4785 68.0176 -13.0859 68.0176 -10.2051 C 68.0176 -7.37305 70.5078 -4.93164 73.4375 -4.93164 Z"/>
  </g>
  <g id="Thin-L" transform="matrix(1 0 0 1 785.426 1556)">
   <path d="M 70.9961 27.4902 C 72.4121 27.4902 74.0234 26.7578 75.0977 26.0742 C 109.521 5.12695 120.02 -1.2207 120.02 -20.8008 L 120.02 -68.1641 C 120.02 -75.0977 118.213 -77.4414 111.621 -79.9805 C 100.146 -84.3262 87.1094 -89.5996 75.5859 -93.6523 C 73.9746 -94.1895 72.5586 -94.5801 70.9961 -94.5801 C 69.4336 -94.5801 68.0176 -94.1895 66.4062 -93.6523 C 54.9805 -89.3555 41.7969 -84.3262 30.3711 -79.9805 C 23.7793 -77.4902 21.9727 -75.0977 21.9727 -68.1641 L 21.9727 -20.8008 C 21.9727 -1.2207 32.7637 4.6875 66.8945 26.0742 C 67.9688 26.7578 69.5801 27.4902 70.9961 27.4902 Z M 70.9961 23.1445 C 69.873 23.1445 68.5547 22.4121 67.7246 21.8262 C 38.3301 2.7832 25.8789 -2.49023 25.8789 -21.2402 L 25.8789 -67.6758 C 25.8789 -72.5098 26.7578 -74.2676 30.2246 -75.6348 C 36.6699 -78.1738 60.5957 -87.3535 67.1387 -89.8438 C 68.6523 -90.5273 70.1172 -90.8691 70.9961 -90.8691 C 71.875 -90.8691 73.2422 -90.4297 74.8535 -89.8438 C 81.3965 -87.3535 105.273 -78.125 111.768 -75.6348 C 115.186 -74.2676 116.113 -72.5098 116.113 -67.6758 L 116.113 -21.2402 C 116.113 -2.49023 103.516 2.58789 74.2676 21.8262 C 73.4375 22.4121 72.1191 23.1445 70.9961 23.1445 Z M 70.9961 -24.0723 C 72.3145 -24.0723 73.1934 -25.0977 73.2422 -26.7578 L 73.6816 -61.1328 C 73.6816 -62.7441 72.6074 -63.8672 70.9961 -63.8672 C 69.3359 -63.8672 68.3105 -62.7441 68.3105 -61.1328 L 68.75 -26.7578 C 68.75 -25.0977 69.6777 -24.0723 70.9961 -24.0723 Z M 70.9961 -6.10352 C 73.3887 -6.10352 75.293 -8.10547 75.293 -10.3516 C 75.293 -12.6953 73.3887 -14.6484 70.9961 -14.6484 C 68.6035 -14.6484 66.6992 -12.6953 66.6992 -10.3516 C 66.6992 -8.10547 68.6035 -6.10352 70.9961 -6.10352 Z"/>
  </g>
  <g id="Ultralight-L" transform="matrix(1 0 0 1 489.96 1556)">
   <path d="M 69.7754 26.9531 C 71.2402 26.9531 72.8516 26.0742 73.8281 25.4883 C 107.959 4.29688 118.066 -1.5625 118.066 -20.3613 L 118.066 -67.5293 C 118.066 -74.5605 116.455 -76.9043 109.57 -79.541 C 97.2656 -84.1797 86.6211 -88.7207 74.1699 -93.0664 C 72.5586 -93.6035 71.2402 -94.043 69.7754 -94.043 C 68.2617 -94.043 66.9434 -93.6523 65.332 -93.0664 C 52.9785 -88.3301 42.2363 -84.1797 29.9316 -79.541 C 23.0469 -77.002 21.4355 -74.5605 21.4355 -67.5293 L 21.4355 -20.3613 C 21.4355 -1.5625 31.8848 3.80859 65.6738 25.4883 C 66.6504 26.0742 68.2617 26.9531 69.7754 26.9531 Z M 69.7754 24.1699 C 68.6035 24.1699 67.2363 23.3398 66.6016 22.9004 C 37.1582 3.51562 24.0234 -1.80664 24.0234 -20.3613 L 24.0234 -67.3828 C 24.0234 -72.8027 25.0488 -74.7559 28.8574 -76.2695 C 34.6191 -78.5645 59.7168 -88.3301 65.5762 -90.5273 C 67.2363 -91.3086 68.8477 -91.748 69.7754 -91.748 C 70.6543 -91.748 72.168 -91.2109 73.9258 -90.5273 C 79.7852 -88.3301 104.883 -78.6133 110.645 -76.2695 C 114.453 -74.7559 115.479 -72.8027 115.479 -67.3828 L 115.479 -20.3613 C 115.479 -1.80664 102.197 3.27148 72.9004 22.9004 C 72.2656 23.3398 70.8984 24.1699 69.7754 24.1699 Z M 69.7754 -24.1211 C 70.7031 -24.1211 71.4355 -25 71.3867 -26.2695 L 71.7773 -60.8887 C 71.7773 -62.1582 71.0449 -62.9883 69.7754 -62.9883 C 68.5059 -62.9883 67.7734 -62.1582 67.7734 -60.8887 L 68.1152 -26.2695 C 68.1152 -25 68.7988 -24.1211 69.7754 -24.1211 Z M 69.7754 -6.68945 C 71.875 -6.68945 73.4863 -8.54492 73.4863 -10.4492 C 73.4863 -12.5 71.875 -14.2578 69.7754 -14.2578 C 67.627 -14.2578 66.0156 -12.5 66.0156 -10.4492 C 66.0156 -8.49609 67.627 -6.68945 69.7754 -6.68945 Z"/>
  </g>
  <g id="Black-M" transform="matrix(1 0 0 1 2874.61 1126)">
   <path d="M 58.7891 16.9434 C 60.0586 16.9434 61.6699 16.3574 62.9883 15.7227 C 92.5781 1.66016 103.369 -7.4707 103.369 -25.1465 L 103.369 -59.7168 C 103.369 -68.9941 100.928 -73.291 92.3828 -76.9531 C 88.623 -78.5645 72.2168 -83.5449 69.0918 -84.4727 C 65.918 -85.4004 61.8164 -85.9863 58.7891 -85.9863 C 55.7617 -85.9863 51.6602 -85.3516 48.4863 -84.4727 C 45.3613 -83.5938 28.9551 -78.5645 25.1465 -76.9531 C 16.6504 -73.291 14.209 -68.9941 14.209 -59.7168 L 14.209 -25.1465 C 14.209 -7.4707 25 1.66016 54.5898 15.7227 C 55.9082 16.3574 57.5195 16.9434 58.7891 16.9434 Z M 58.7891 -0.488281 C 58.4961 -0.488281 58.252 -0.537109 57.0801 -1.31836 C 35.9863 -14.6484 30.5176 -16.5039 30.5176 -27.002 L 30.5176 -57.959 C 30.5176 -60.1074 31.1035 -61.084 32.6172 -61.7188 C 38.7207 -64.2578 50.9766 -68.2129 53.0762 -68.8477 C 55.8594 -69.6777 57.2754 -70.0684 58.7891 -70.0684 C 60.3027 -70.0684 61.7188 -69.6777 64.502 -68.8477 C 66.6016 -68.2129 78.8574 -64.2578 84.9609 -61.7188 C 86.4746 -61.084 87.0605 -60.1074 87.0605 -57.959 L 87.0605 -27.002 C 87.0605 -16.0156 80.0781 -12.5977 60.498 -1.31836 C 59.3262 -0.634766 59.082 -0.488281 58.7891 -0.488281 Z M 58.8379 -32.1777 C 62.9883 -32.1777 65.4297 -34.4238 65.7227 -38.6719 L 66.5527 -51.8555 C 66.748 -56.4453 63.6719 -59.4727 58.7891 -59.4727 C 53.8574 -59.4727 50.7812 -56.4453 50.9766 -51.8555 L 51.8555 -38.5742 C 52.1484 -34.4238 54.6387 -32.1777 58.8379 -32.1777 Z M 58.8379 -14.4043 C 63.4766 -14.4043 66.748 -16.8457 66.748 -21.1914 C 66.748 -25.4395 63.4766 -27.9297 58.8379 -27.9297 C 54.1992 -27.9297 50.8301 -25.5371 50.8301 -21.1914 C 50.8301 -16.8457 54.1992 -14.4043 58.8379 -14.4043 Z"/>
  </g>
  <g id="Heavy-M" transform="matrix(1 0 0 1 2577.75 1126)">
   <path d="M 58.9355 16.5527 C 60.0586 16.5527 61.6211 16.0645 62.8906 15.4297 C 92.041 1.02539 102.539 -7.51953 102.539 -25.2441 L 102.539 -60.498 C 102.539 -68.75 100.195 -72.4609 92.6758 -75.6348 C 88.4277 -77.4414 71.5332 -82.8125 67.7734 -83.9844 C 65.0391 -84.8145 61.5723 -85.3516 58.9355 -85.3516 C 56.2988 -85.3516 52.832 -84.7656 50.0977 -83.9844 C 46.3379 -82.959 29.3945 -77.4414 25.1465 -75.6348 C 17.6758 -72.4609 15.2832 -68.75 15.2832 -60.498 L 15.2832 -25.2441 C 15.2832 -7.51953 25.8301 0.976562 54.9316 15.4297 C 56.25 16.0645 57.7637 16.5527 58.9355 16.5527 Z M 58.9355 1.12305 C 58.4961 1.12305 58.1543 1.02539 56.8848 0.244141 C 35.4492 -13.1348 29.5898 -15.5273 29.5898 -27.0996 L 29.5898 -58.7891 C 29.5898 -60.8398 30.0781 -61.7188 31.543 -62.3047 C 37.9883 -64.9414 50.7812 -69.1406 54.1016 -70.3125 C 56.3965 -70.9961 57.6172 -71.3379 58.9355 -71.3379 C 60.2051 -71.3379 61.4258 -70.9961 63.7695 -70.3125 C 67.0898 -69.1406 79.834 -64.8926 86.2793 -62.3047 C 87.7441 -61.7188 88.2812 -60.8398 88.2812 -58.7891 L 88.2812 -27.0996 C 88.2812 -15.1367 81.2012 -11.6211 60.9375 0.244141 C 59.7168 0.976562 59.3262 1.12305 58.9355 1.12305 Z M 58.9844 -30.8105 C 62.6953 -30.8105 64.8926 -32.8613 65.0879 -36.7188 L 65.918 -52.832 C 66.0645 -56.9336 63.2812 -59.668 58.9355 -59.668 C 54.541 -59.668 51.7578 -56.9824 51.9043 -52.8809 L 52.7344 -36.6211 C 52.9297 -32.8613 55.1758 -30.8105 58.9844 -30.8105 Z M 58.9844 -13.5254 C 63.1836 -13.5254 66.2598 -15.918 66.2598 -19.873 C 66.2598 -23.8281 63.1836 -26.2207 58.9844 -26.2207 C 54.7363 -26.2207 51.6113 -23.8281 51.6113 -19.873 C 51.6113 -15.918 54.7363 -13.5254 58.9844 -13.5254 Z"/>
  </g>
  <g id="Bold-M" transform="matrix(1 0 0 1 2280.9 1126)">
   <path d="M 59.082 16.1621 C 60.1074 16.1621 61.5234 15.7227 62.8418 15.0391 C 91.5039 0.244141 101.66 -7.61719 101.66 -25.3418 L 101.66 -61.3281 C 101.66 -68.5059 99.3164 -71.4844 93.0176 -74.1699 C 88.2324 -76.2207 70.752 -82.0312 66.2598 -83.4961 C 64.0625 -84.1797 61.2793 -84.6191 59.082 -84.6191 C 56.8848 -84.6191 54.1016 -84.082 51.9043 -83.4961 C 47.4609 -82.2266 29.9316 -76.1719 25.1465 -74.1699 C 18.8477 -71.5332 16.5039 -68.5059 16.5039 -61.3281 L 16.5039 -25.3418 C 16.5039 -7.61719 26.709 0.195312 55.3711 15.0391 C 56.6406 15.7227 58.0566 16.1621 59.082 16.1621 Z M 59.082 2.97852 C 58.5449 2.97852 58.0078 2.83203 56.7383 2.00195 C 34.8633 -11.4746 28.5645 -14.4531 28.5645 -27.1973 L 28.5645 -59.7168 C 28.5645 -61.6211 29.0039 -62.4023 30.4199 -62.9883 C 37.1582 -65.7227 50.5371 -70.166 55.2734 -71.9238 C 57.0312 -72.5098 58.0566 -72.7539 59.082 -72.7539 C 60.1074 -72.7539 61.1328 -72.5098 62.8906 -71.9238 C 67.6758 -70.166 80.9082 -65.5762 87.7441 -62.9883 C 89.209 -62.4512 89.6484 -61.6211 89.6484 -59.7168 L 89.6484 -27.1973 C 89.6484 -14.209 82.5195 -10.498 61.4746 2.00195 C 60.1562 2.7832 59.6191 2.97852 59.082 2.97852 Z M 59.1309 -29.2969 C 62.3535 -29.2969 64.2578 -31.1035 64.4043 -34.5215 L 65.1855 -53.9551 C 65.332 -57.5195 62.793 -59.9609 59.082 -59.9609 C 55.2734 -59.9609 52.832 -57.5195 52.9297 -54.0039 L 53.7109 -34.4238 C 53.8574 -31.1035 55.8105 -29.2969 59.1309 -29.2969 Z M 59.1309 -12.5 C 62.8418 -12.5 65.7227 -14.8438 65.7227 -18.4082 C 65.7227 -21.9727 62.8906 -24.3164 59.1309 -24.3164 C 55.3711 -24.3164 52.4902 -21.9727 52.4902 -18.4082 C 52.4902 -14.8438 55.3711 -12.5 59.1309 -12.5 Z"/>
  </g>
  <g id="Semibold-M" transform="matrix(1 0 0 1 1984.06 1126)">
   <path d="M 59.1797 15.8691 C 60.1074 15.8691 61.4746 15.4785 62.7441 14.7949 C 91.1133 -0.244141 101.025 -7.66602 101.025 -25.4395 L 101.025 -61.9141 C 101.025 -68.3594 98.7305 -70.8496 93.2129 -73.1934 C 88.0859 -75.3418 70.166 -81.4941 65.2344 -83.1055 C 63.3789 -83.7402 61.084 -84.1309 59.1797 -84.1309 C 57.2754 -84.1309 55.0293 -83.6426 53.125 -83.1055 C 48.1934 -81.7383 30.2734 -75.293 25.1465 -73.1934 C 19.6289 -70.8496 17.334 -68.3594 17.334 -61.9141 L 17.334 -25.4395 C 17.334 -7.66602 27.2949 -0.292969 55.6152 14.7949 C 56.8848 15.4785 58.252 15.8691 59.1797 15.8691 Z M 59.1797 4.24805 C 58.5449 4.24805 57.959 4.05273 56.5918 3.22266 C 34.4727 -10.3516 27.832 -13.6719 27.832 -27.2949 L 27.832 -60.3516 C 27.832 -62.1582 28.2227 -62.8906 29.5898 -63.4766 C 36.6211 -66.3086 50.3418 -70.8496 56.0547 -73.0469 C 57.4707 -73.5352 58.3496 -73.7305 59.1797 -73.7305 C 60.0586 -73.7305 60.9375 -73.5352 62.3535 -73.0469 C 68.0176 -70.8496 81.6895 -66.0645 88.7695 -63.4766 C 90.1855 -62.9395 90.5762 -62.1582 90.5762 -60.3516 L 90.5762 -27.2949 C 90.5762 -13.5254 83.3984 -9.7168 61.8164 3.22266 C 60.4492 4.00391 59.8145 4.24805 59.1797 4.24805 Z M 59.2285 -28.2715 C 62.1094 -28.2715 63.8184 -29.8828 63.9648 -32.959 L 64.6973 -54.7363 C 64.7949 -57.9102 62.5 -60.1074 59.1797 -60.1074 C 55.8105 -60.1074 53.5645 -57.9102 53.6621 -54.7852 L 54.3945 -32.959 C 54.4922 -29.9316 56.2012 -28.2715 59.2285 -28.2715 Z M 59.2285 -11.8164 C 62.5977 -11.8164 65.332 -14.1113 65.332 -17.4316 C 65.332 -20.7031 62.6465 -23.0469 59.2285 -23.0469 C 55.7617 -23.0469 53.0762 -20.7031 53.0762 -17.4316 C 53.0762 -14.1602 55.8105 -11.8164 59.2285 -11.8164 Z"/>
  </g>
  <g id="Medium-M" transform="matrix(1 0 0 1 1687.28 1126)">
   <path d="M 59.2773 15.625 C 60.1562 15.625 61.4746 15.332 62.6953 14.6484 C 90.8203 -0.634766 100.586 -7.71484 100.586 -25.4883 L 100.586 -62.3535 C 100.586 -68.2129 98.291 -70.3125 93.4082 -72.4121 C 87.9883 -74.707 69.7754 -81.0547 64.4531 -82.8613 C 62.8418 -83.3984 60.9375 -83.7402 59.2773 -83.7402 C 57.6172 -83.7402 55.7129 -83.3008 54.1016 -82.8613 C 48.7793 -81.3477 30.5664 -74.6582 25.1465 -72.4121 C 20.2637 -70.3613 17.9688 -68.2129 17.9688 -62.3535 L 17.9688 -25.4883 C 17.9688 -7.71484 27.7832 -0.732422 55.8105 14.6484 C 57.0801 15.332 58.3984 15.625 59.2773 15.625 Z M 59.2773 5.22461 C 58.5938 5.22461 57.8613 4.98047 56.4941 4.15039 C 34.1797 -9.47266 27.2949 -13.1348 27.2949 -27.3438 L 27.2949 -60.8398 C 27.2949 -62.5977 27.6367 -63.2812 29.0039 -63.8184 C 36.1816 -66.6992 50.2441 -71.3867 56.6406 -73.877 C 57.7637 -74.3164 58.5449 -74.4629 59.2773 -74.4629 C 60.0098 -74.4629 60.7422 -74.2676 61.9141 -73.877 C 68.3105 -71.3867 82.2266 -66.4551 89.5508 -63.8184 C 90.918 -63.3301 91.2598 -62.5977 91.2598 -60.8398 L 91.2598 -27.3438 C 91.2598 -13.0371 84.082 -9.13086 62.0605 4.15039 C 60.6934 4.98047 59.9609 5.22461 59.2773 5.22461 Z M 59.2773 -27.4902 C 61.9629 -27.4902 63.5254 -28.9551 63.5742 -31.8359 L 64.3066 -55.3223 C 64.4043 -58.2031 62.2559 -60.2539 59.2285 -60.2539 C 56.2012 -60.2539 54.1016 -58.252 54.1992 -55.3711 L 54.8828 -31.7871 C 54.9805 -29.0039 56.543 -27.4902 59.2773 -27.4902 Z M 59.2773 -11.2793 C 62.4512 -11.2793 65.0391 -13.5254 65.0391 -16.6504 C 65.0391 -19.7754 62.4512 -22.0215 59.2773 -22.0215 C 56.1035 -22.0215 53.5156 -19.7266 53.5156 -16.6504 C 53.5156 -13.5742 56.1523 -11.2793 59.2773 -11.2793 Z"/>
  </g>
  <g id="Regular-M" transform="matrix(1 0 0 1 1390.47 1126)">
   <path d="M 59.375 15.3809 C 60.1562 15.3809 61.4258 15.0879 62.6465 14.4043 C 90.4297 -1.17188 99.9512 -7.76367 99.9512 -25.5859 L 99.9512 -62.9395 C 99.9512 -68.0664 97.7539 -69.6777 93.6035 -71.4355 C 87.8418 -73.8281 69.2383 -80.5176 63.4766 -82.5195 C 62.1582 -82.959 60.7422 -83.252 59.375 -83.252 C 58.0078 -83.252 56.5918 -82.8613 55.3223 -82.5195 C 49.5605 -80.8594 30.9082 -73.7793 25.1465 -71.4355 C 21.0449 -69.7266 18.7988 -68.0664 18.7988 -62.9395 L 18.7988 -25.5859 C 18.7988 -7.76367 28.3691 -1.2207 56.1035 14.4043 C 57.373 15.0879 58.5938 15.3809 59.375 15.3809 Z M 59.375 6.49414 C 58.5938 6.49414 57.8125 6.20117 56.3477 5.32227 C 33.7891 -8.34961 26.5625 -12.3535 26.5625 -27.3926 L 26.5625 -61.4746 C 26.5625 -63.1348 26.8555 -63.7695 28.2227 -64.3066 C 35.6445 -67.2363 50.0488 -72.0703 57.4219 -75 C 58.2031 -75.293 58.8379 -75.4395 59.375 -75.4395 C 59.9121 -75.4395 60.5469 -75.293 61.3281 -75 C 68.7012 -72.0703 83.0078 -66.8945 90.5762 -64.3066 C 91.8945 -63.8184 92.1875 -63.1348 92.1875 -61.4746 L 92.1875 -27.3926 C 92.1875 -12.3535 84.9609 -8.39844 62.4023 5.32227 C 60.9863 6.20117 60.1562 6.49414 59.375 6.49414 Z M 59.375 -26.4648 C 61.7188 -26.4648 63.0859 -27.7832 63.1348 -30.3223 L 63.8184 -56.1035 C 63.8672 -58.5938 61.9141 -60.4492 59.3262 -60.4492 C 56.6895 -60.4492 54.834 -58.6426 54.8828 -56.1523 L 55.5664 -30.3223 C 55.6152 -27.832 56.9336 -26.4648 59.375 -26.4648 Z M 59.375 -10.5957 C 62.207 -10.5957 64.6484 -12.8418 64.6484 -15.6738 C 64.6484 -18.5059 62.2559 -20.752 59.375 -20.752 C 56.4941 -20.752 54.1016 -18.457 54.1016 -15.6738 C 54.1016 -12.8906 56.543 -10.5957 59.375 -10.5957 Z"/>
  </g>
  <g id="Light-M" transform="matrix(1 0 0 1 1095.39 1126)">
   <path d="M 57.7637 14.5996 C 58.6426 14.5996 59.8633 14.209 60.9863 13.5742 C 88.3301 -2.24609 97.3633 -8.20312 97.3633 -25 L 97.3633 -62.1094 C 97.3633 -67.334 95.4102 -69.043 90.918 -70.8496 C 83.9844 -73.6328 68.6035 -79.3457 61.6211 -81.7383 C 60.3516 -82.1777 59.0332 -82.4707 57.7637 -82.4707 C 56.4453 -82.4707 55.127 -82.1289 53.8574 -81.7383 C 46.9238 -79.4922 31.4941 -73.584 24.5605 -70.8496 C 20.0684 -69.0918 18.1152 -67.334 18.1152 -62.1094 L 18.1152 -25 C 18.1152 -8.20312 27.2461 -2.39258 54.4922 13.5742 C 55.6152 14.209 56.8359 14.5996 57.7637 14.5996 Z M 57.7637 7.8125 C 56.9336 7.8125 56.0547 7.42188 54.8828 6.73828 C 32.2266 -7.37305 24.1211 -11.4258 24.1211 -26.2695 L 24.1211 -61.0352 C 24.1211 -63.4766 24.5605 -64.4043 26.416 -65.1367 C 32.9102 -67.7246 48.877 -73.3887 55.4199 -75.9766 C 56.2988 -76.3672 57.1289 -76.5625 57.7637 -76.5625 C 58.3496 -76.5625 59.1309 -76.3184 60.1074 -75.9766 C 66.6016 -73.3887 82.4707 -67.5293 89.0625 -65.1367 C 90.918 -64.4531 91.3574 -63.4766 91.3574 -61.0352 L 91.3574 -26.2695 C 91.3574 -11.4258 83.1543 -7.4707 60.5957 6.73828 C 59.4238 7.42188 58.5449 7.8125 57.7637 7.8125 Z M 57.7637 -26.5137 C 59.5703 -26.5137 60.6934 -27.6367 60.7422 -29.6875 L 61.2793 -55.7617 C 61.3281 -57.8125 59.8145 -59.2773 57.7148 -59.2773 C 55.5664 -59.2773 54.1504 -57.8613 54.1504 -55.8105 L 54.6875 -29.6875 C 54.7363 -27.6855 55.8594 -26.5137 57.7637 -26.5137 Z M 57.7637 -11.377 C 60.2051 -11.377 62.2559 -13.3301 62.2559 -15.7715 C 62.2559 -18.2129 60.2051 -20.166 57.7637 -20.166 C 55.2734 -20.166 53.2227 -18.2129 53.2227 -15.7715 C 53.2227 -13.3789 55.2734 -11.377 57.7637 -11.377 Z"/>
  </g>
  <g id="Thin-M" transform="matrix(1 0 0 1 800.856 1126)">
   <path d="M 55.5664 13.623 C 56.5918 13.623 57.8613 13.0859 58.7891 12.5488 C 85.5957 -3.61328 93.8965 -8.74023 93.8965 -24.2188 L 93.8965 -61.0352 C 93.8965 -66.3574 92.3828 -68.1641 87.4023 -70.0684 C 78.9062 -73.3398 67.7246 -77.7832 59.1797 -80.7129 C 57.9102 -81.1523 56.7871 -81.4941 55.5664 -81.4941 C 54.3457 -81.4941 53.2227 -81.1523 51.9531 -80.7129 C 43.457 -77.6367 32.2266 -73.3398 23.7305 -70.0684 C 18.75 -68.2129 17.2363 -66.3574 17.2363 -61.0352 L 17.2363 -24.2188 C 17.2363 -8.74023 25.7812 -3.95508 52.3438 12.5488 C 53.2715 13.0859 54.541 13.623 55.5664 13.623 Z M 55.5664 9.57031 C 54.7363 9.57031 53.7109 9.0332 52.9785 8.54492 C 30.2246 -6.05469 20.8496 -10.1562 20.8496 -24.7559 L 20.8496 -60.498 C 20.8496 -64.0137 21.5332 -65.2832 24.0234 -66.2598 C 29.2969 -68.3594 47.3633 -75.1953 52.6855 -77.2461 C 53.8574 -77.7344 54.9316 -78.0273 55.5664 -78.0273 C 56.2012 -78.0273 57.2266 -77.6855 58.4473 -77.2461 C 63.7695 -75.1953 81.7871 -68.3105 87.1094 -66.2598 C 89.5996 -65.2832 90.2832 -64.0137 90.2832 -60.498 L 90.2832 -24.7559 C 90.2832 -10.1562 80.8105 -6.25 58.1543 8.54492 C 57.4219 9.0332 56.3965 9.57031 55.5664 9.57031 Z M 55.5664 -26.5625 C 56.7383 -26.5625 57.5195 -27.4414 57.5195 -28.8574 L 57.9102 -55.3711 C 57.959 -56.7871 56.9824 -57.7637 55.5664 -57.7637 C 54.1016 -57.7637 53.1738 -56.7871 53.1738 -55.4199 L 53.5645 -28.8574 C 53.5645 -27.4414 54.3457 -26.5625 55.5664 -26.5625 Z M 55.5664 -12.4023 C 57.5195 -12.4023 59.1309 -14.0625 59.1309 -15.918 C 59.1309 -17.8711 57.5684 -19.4824 55.5664 -19.4824 C 53.5645 -19.4824 52.002 -17.8711 52.002 -15.918 C 52.002 -14.0625 53.6133 -12.4023 55.5664 -12.4023 Z"/>
  </g>
  <g id="Ultralight-M" transform="matrix(1 0 0 1 505.268 1126)">
   <path d="M 54.4434 13.1348 C 55.5664 13.1348 56.8359 12.5 57.6172 12.0117 C 84.1797 -4.3457 92.0898 -9.0332 92.0898 -23.8281 L 92.0898 -60.4492 C 92.0898 -65.8691 90.8203 -67.6758 85.5469 -69.6777 C 76.2695 -73.1934 67.2852 -76.9531 57.9102 -80.2246 C 56.6895 -80.6641 55.6152 -80.957 54.4434 -80.957 C 53.2715 -80.957 52.1973 -80.6641 50.9766 -80.2246 C 41.6992 -76.709 32.6172 -73.1934 23.3398 -69.6777 C 18.1152 -67.7734 16.7969 -65.8691 16.7969 -60.4492 L 16.7969 -23.8281 C 16.7969 -9.0332 25 -4.73633 51.2695 12.0117 C 52.0996 12.5 53.3203 13.1348 54.4434 13.1348 Z M 54.4434 10.498 C 53.5645 10.498 52.4902 9.86328 51.9531 9.52148 C 29.1504 -5.41992 19.1895 -9.52148 19.1895 -23.9746 L 19.1895 -60.2539 C 19.1895 -64.2578 19.9707 -65.7227 22.8027 -66.8457 C 27.4902 -68.7012 46.582 -76.0742 51.3184 -77.8809 C 52.5879 -78.4668 53.7598 -78.7598 54.4434 -78.7598 C 55.127 -78.7598 56.25 -78.3691 57.5684 -77.8809 C 62.3535 -76.0742 81.4453 -68.7012 86.1328 -66.8457 C 88.9648 -65.7227 89.6973 -64.2578 89.6973 -60.2539 L 89.6973 -23.9746 C 89.6973 -9.52148 79.6387 -5.61523 56.9336 9.52148 C 56.3965 9.86328 55.3223 10.498 54.4434 10.498 Z M 54.4434 -26.6113 C 55.3223 -26.6113 55.9082 -27.3438 55.9082 -28.418 L 56.2012 -55.1758 C 56.2012 -56.2988 55.5664 -57.0312 54.4434 -57.0312 C 53.3691 -57.0312 52.6855 -56.2988 52.6855 -55.1758 L 52.9785 -28.418 C 52.9785 -27.3438 53.6133 -26.6113 54.4434 -26.6113 Z M 54.4434 -12.9395 C 56.2012 -12.9395 57.5195 -14.4043 57.5195 -16.0156 C 57.5195 -17.6758 56.2012 -19.0918 54.4434 -19.0918 C 52.7344 -19.0918 51.3672 -17.6758 51.3672 -16.0156 C 51.3672 -14.4043 52.7344 -12.9395 54.4434 -12.9395 Z"/>
  </g>
  <g id="Black-S" transform="matrix(1 0 0 1 2887.31 696)">
   <path d="M 46.0938 5.61523 C 47.0703 5.61523 48.3398 5.17578 49.3652 4.6875 C 72.5098 -6.34766 80.957 -13.4766 80.957 -27.3438 L 80.957 -54.4922 C 80.957 -61.6699 79.0527 -64.9902 72.4609 -67.8223 C 69.4824 -69.0918 56.543 -73.0469 54.0527 -73.7793 C 51.6113 -74.5117 48.4375 -74.9512 46.0938 -74.9512 C 43.75 -74.9512 40.5762 -74.4629 38.1348 -73.7793 C 35.6445 -73.0957 22.7051 -69.0918 19.7266 -67.8223 C 13.1348 -64.9902 11.2305 -61.6699 11.2305 -54.4922 L 11.2305 -27.3438 C 11.2305 -13.4766 19.6777 -6.34766 42.8223 4.6875 C 43.8477 5.17578 45.1172 5.61523 46.0938 5.61523 Z M 46.0938 -7.91016 C 45.8496 -7.91016 45.6543 -7.95898 44.7266 -8.54492 C 28.1738 -18.9941 23.877 -20.5078 23.877 -28.8086 L 23.877 -53.125 C 23.877 -54.7852 24.3164 -55.5176 25.4883 -56.0059 C 30.3223 -58.0078 39.9414 -61.1328 41.6992 -61.6699 C 43.8477 -62.3047 44.9219 -62.5977 46.0938 -62.5977 C 47.2656 -62.5977 48.3398 -62.3047 50.4883 -61.6699 C 52.2461 -61.1328 61.8652 -58.0078 66.6992 -56.0059 C 67.8711 -55.5176 68.3105 -54.7852 68.3105 -53.125 L 68.3105 -28.8086 C 68.3105 -20.1172 62.8418 -17.4316 47.4609 -8.54492 C 46.5332 -8.00781 46.3379 -7.91016 46.0938 -7.91016 Z M 46.1426 -32.7148 C 49.3652 -32.7148 51.2695 -34.4727 51.4648 -37.793 L 52.1484 -48.3398 C 52.2949 -51.9043 49.9023 -54.248 46.0938 -54.248 C 42.2852 -54.248 39.8926 -51.9043 40.0391 -48.3398 L 40.7227 -37.6953 C 40.918 -34.4727 42.8711 -32.7148 46.1426 -32.7148 Z M 46.1426 -18.8477 C 49.7559 -18.8477 52.2949 -20.752 52.2949 -24.1211 C 52.2949 -27.4414 49.7559 -29.3945 46.1426 -29.3945 C 42.5293 -29.3945 39.8926 -27.4902 39.8926 -24.1211 C 39.8926 -20.752 42.5293 -18.8477 46.1426 -18.8477 Z"/>
  </g>
  <g id="Heavy-S" transform="matrix(1 0 0 1 2590.3 696)">
   <path d="M 46.3867 5.41992 C 47.2656 5.41992 48.4375 5.0293 49.5117 4.54102 C 72.3633 -6.73828 80.6152 -13.4766 80.6152 -27.4902 L 80.6152 -55.1758 C 80.6152 -61.5723 78.7109 -64.4043 72.998 -66.8945 C 69.7754 -68.2617 56.0547 -72.6562 53.2227 -73.4863 C 51.123 -74.1699 48.4375 -74.5605 46.3867 -74.5605 C 44.3359 -74.5605 41.6504 -74.0723 39.502 -73.4863 C 36.6699 -72.7539 22.998 -68.2617 19.7754 -66.8945 C 14.0137 -64.4043 12.1094 -61.5723 12.1094 -55.1758 L 12.1094 -27.4902 C 12.1094 -13.4766 20.4102 -6.73828 43.2617 4.54102 C 44.2871 5.0293 45.5078 5.41992 46.3867 5.41992 Z M 46.3867 -6.78711 C 46.0449 -6.78711 45.752 -6.88477 44.7754 -7.51953 C 27.9297 -17.9688 23.4375 -19.873 23.4375 -29.0039 L 23.4375 -53.8086 C 23.4375 -55.2734 23.8281 -55.957 24.9023 -56.3965 C 30.0781 -58.4961 39.8926 -61.6699 42.7246 -62.6953 C 44.4824 -63.1836 45.4102 -63.4277 46.3867 -63.4277 C 47.3633 -63.4277 48.291 -63.1836 50.0488 -62.6953 C 52.8809 -61.6699 62.6465 -58.3984 67.8711 -56.3965 C 68.9453 -55.957 69.3359 -55.2734 69.3359 -53.8086 L 69.3359 -29.0039 C 69.3359 -19.5801 63.916 -16.7969 47.998 -7.51953 C 47.0215 -6.93359 46.7285 -6.78711 46.3867 -6.78711 Z M 46.4355 -31.6895 C 49.3652 -31.6895 51.123 -33.3008 51.2695 -36.377 L 51.9531 -49.1211 C 52.0508 -52.3926 49.8047 -54.541 46.3867 -54.541 C 42.9199 -54.541 40.6738 -52.3926 40.8203 -49.1699 L 41.4551 -36.2793 C 41.6504 -33.3008 43.4082 -31.6895 46.4355 -31.6895 Z M 46.4355 -18.0664 C 49.7559 -18.0664 52.1973 -19.9707 52.1973 -23.0957 C 52.1973 -26.2207 49.7559 -28.1738 46.4355 -28.1738 C 43.0664 -28.1738 40.5762 -26.2695 40.5762 -23.0957 C 40.5762 -19.9707 43.1152 -18.0664 46.4355 -18.0664 Z"/>
  </g>
  <g id="Bold-S" transform="matrix(1 0 0 1 2293.27 696)">
   <path d="M 46.6797 5.17578 C 47.4609 5.17578 48.584 4.88281 49.6094 4.3457 C 72.168 -7.17773 80.2734 -13.4766 80.2734 -27.6367 L 80.2734 -55.9082 C 80.2734 -61.4746 78.3691 -63.7695 73.5352 -65.8691 C 70.0684 -67.334 55.5664 -72.168 52.3438 -73.1934 C 50.5859 -73.7305 48.4375 -74.0723 46.6797 -74.0723 C 44.9707 -74.0723 42.8223 -73.6816 41.0645 -73.1934 C 37.8418 -72.3633 23.291 -67.334 19.873 -65.8691 C 15.0391 -63.7695 13.1348 -61.4746 13.1348 -55.9082 L 13.1348 -27.6367 C 13.1348 -13.4766 21.2402 -7.17773 43.7988 4.3457 C 44.8242 4.88281 45.9473 5.17578 46.6797 5.17578 Z M 46.6797 -5.56641 C 46.2891 -5.56641 45.8984 -5.66406 44.7754 -6.34766 C 27.6855 -16.7969 22.9492 -19.1406 22.9492 -29.248 L 22.9492 -54.541 C 22.9492 -55.8594 23.2422 -56.3965 24.2188 -56.7871 C 29.7852 -59.0332 39.8438 -62.3047 43.8477 -63.8184 C 45.166 -64.209 45.8984 -64.4043 46.6797 -64.4043 C 47.5098 -64.4043 48.2422 -64.209 49.5605 -63.8184 C 53.5645 -62.3047 63.5742 -58.8867 69.1895 -56.7871 C 70.166 -56.4453 70.459 -55.8594 70.459 -54.541 L 70.459 -29.248 C 70.459 -18.9453 65.1367 -16.0645 48.6328 -6.34766 C 47.5098 -5.71289 47.1191 -5.56641 46.6797 -5.56641 Z M 46.7285 -30.5176 C 49.3652 -30.5176 50.9277 -31.9824 51.0254 -34.7656 L 51.709 -50.0488 C 51.8066 -52.8809 49.707 -54.8828 46.6797 -54.8828 C 43.6035 -54.8828 41.6016 -52.9297 41.6992 -50.0488 L 42.334 -34.7168 C 42.4316 -31.9824 43.9941 -30.5176 46.7285 -30.5176 Z M 46.7285 -17.1875 C 49.707 -17.1875 52.0508 -19.0918 52.0508 -21.9727 C 52.0508 -24.8535 49.7559 -26.7578 46.7285 -26.7578 C 43.7012 -26.7578 41.3574 -24.8535 41.3574 -21.9727 C 41.3574 -19.0918 43.75 -17.1875 46.7285 -17.1875 Z"/>
  </g>
  <g id="Semibold-S" transform="matrix(1 0 0 1 1996.34 696)">
   <path d="M 46.9238 5.0293 C 47.6074 5.0293 48.6816 4.78516 49.707 4.24805 C 72.0703 -7.4707 80.0293 -13.4766 80.0293 -27.7344 L 80.0293 -56.4453 C 80.0293 -61.4258 78.125 -63.3301 73.9258 -65.1367 C 70.3125 -66.6992 55.1758 -71.875 51.709 -72.998 C 50.2441 -73.4863 48.4375 -73.7793 46.9238 -73.7793 C 45.4102 -73.7793 43.6035 -73.3887 42.1387 -72.998 C 38.6719 -72.1191 23.5352 -66.6504 19.9219 -65.1367 C 15.7227 -63.3789 13.8184 -61.4258 13.8184 -56.4453 L 13.8184 -27.7344 C 13.8184 -13.4766 21.7773 -7.51953 44.1406 4.24805 C 45.166 4.78516 46.2402 5.0293 46.9238 5.0293 Z M 46.9238 -4.6875 C 46.4355 -4.6875 45.9473 -4.83398 44.8242 -5.51758 C 27.5391 -16.0156 22.6074 -18.6523 22.6074 -29.3945 L 22.6074 -55.0781 C 22.6074 -56.2012 22.8516 -56.7383 23.7793 -57.0801 C 29.5898 -59.4238 39.8438 -62.6953 44.6289 -64.5508 C 45.6543 -64.8926 46.2891 -65.0391 46.9238 -65.0391 C 47.5586 -65.0391 48.1934 -64.8926 49.2188 -64.5508 C 54.0039 -62.6953 64.1602 -59.1797 70.0684 -57.0801 C 70.9961 -56.7383 71.2402 -56.2012 71.2402 -55.0781 L 71.2402 -29.3945 C 71.2402 -18.5059 65.9668 -15.5273 49.0234 -5.51758 C 47.8516 -4.83398 47.4121 -4.6875 46.9238 -4.6875 Z M 46.9238 -29.7363 C 49.3652 -29.7363 50.7812 -31.0547 50.8789 -33.6426 L 51.5137 -50.6348 C 51.6113 -53.2715 49.6582 -55.127 46.875 -55.127 C 44.0918 -55.127 42.2363 -53.2715 42.2852 -50.6836 L 42.9199 -33.5938 C 43.0176 -31.1035 44.4336 -29.7363 46.9238 -29.7363 Z M 46.9238 -16.6016 C 49.707 -16.6016 51.9531 -18.457 51.9531 -21.1914 C 51.9531 -23.9258 49.7559 -25.8301 46.9238 -25.8301 C 44.1406 -25.8301 41.8945 -23.877 41.8945 -21.1914 C 41.8945 -18.5059 44.1406 -16.6016 46.9238 -16.6016 Z"/>
  </g>
  <g id="Medium-S" transform="matrix(1 0 0 1 1699.46 696)">
   <path d="M 47.0703 4.93164 C 47.7051 4.93164 48.7305 4.6875 49.8047 4.15039 C 71.9727 -7.71484 79.834 -13.4766 79.834 -27.832 L 79.834 -56.8359 C 79.834 -61.377 77.9297 -62.9883 74.2676 -64.5996 C 70.459 -66.2109 54.8828 -71.6309 51.2207 -72.8516 C 49.9512 -73.2422 48.4375 -73.5352 47.0703 -73.5352 C 45.752 -73.5352 44.2383 -73.1934 42.9688 -72.8516 C 39.2578 -71.9238 23.6816 -66.1621 19.9219 -64.5996 C 16.2598 -63.0371 14.3555 -61.377 14.3555 -56.8359 L 14.3555 -27.832 C 14.3555 -13.4766 22.2168 -7.71484 44.3848 4.15039 C 45.4102 4.6875 46.4355 4.93164 47.0703 4.93164 Z M 47.0703 -4.05273 C 46.582 -4.05273 46.0449 -4.19922 44.8242 -4.93164 C 27.3926 -15.4297 22.3145 -18.2617 22.3145 -29.4922 L 22.3145 -55.4688 C 22.3145 -56.4941 22.5586 -56.9824 23.4375 -57.3242 C 29.4434 -59.7168 39.7949 -63.0371 45.2148 -65.1367 C 45.9961 -65.4297 46.5332 -65.5273 47.0703 -65.5273 C 47.6074 -65.5273 48.1445 -65.4297 48.9746 -65.1367 C 54.3945 -63.0371 64.6484 -59.4238 70.752 -57.3242 C 71.6309 -56.9824 71.875 -56.4941 71.875 -55.4688 L 71.875 -29.4922 C 71.875 -18.2129 66.6016 -15.1367 49.3652 -4.93164 C 48.1445 -4.19922 47.6074 -4.05273 47.0703 -4.05273 Z M 47.1191 -29.1016 C 49.3652 -29.1016 50.6836 -30.3711 50.7812 -32.8125 L 51.3672 -51.123 C 51.4648 -53.5156 49.6094 -55.3223 47.0703 -55.3223 C 44.4824 -55.3223 42.6758 -53.5645 42.7734 -51.123 L 43.3594 -32.7637 C 43.4082 -30.4199 44.7266 -29.1016 47.1191 -29.1016 Z M 47.1191 -16.1621 C 49.707 -16.1621 51.8555 -18.0176 51.8555 -20.6055 C 51.8555 -23.1934 49.7559 -25.0977 47.1191 -25.0977 C 44.4336 -25.0977 42.2852 -23.1934 42.2852 -20.6055 C 42.2852 -18.0664 44.4824 -16.1621 47.1191 -16.1621 Z"/>
  </g>
  <g id="Regular-S" transform="matrix(1 0 0 1 1402.53 696)">
   <path d="M 47.3145 4.78516 C 47.8516 4.78516 48.8281 4.58984 49.9023 4.00391 C 71.8262 -8.00781 79.5898 -13.4766 79.5898 -27.9297 L 79.5898 -57.3242 C 79.5898 -61.3281 77.6855 -62.5488 74.6582 -63.8672 C 70.7031 -65.5762 54.541 -71.2891 50.5859 -72.6562 C 49.5605 -72.998 48.4375 -73.2422 47.3145 -73.2422 C 46.1914 -73.2422 45.0195 -72.9004 44.043 -72.6562 C 40.0879 -71.6797 23.9258 -65.5273 19.9707 -63.8672 C 16.9434 -62.5977 15.0391 -61.3281 15.0391 -57.3242 L 15.0391 -27.9297 C 15.0391 -13.4766 22.8027 -8.05664 44.7266 4.00391 C 45.8008 4.58984 46.7773 4.78516 47.3145 4.78516 Z M 47.3145 -3.22266 C 46.7285 -3.22266 46.1426 -3.36914 44.8242 -4.15039 C 27.1973 -14.6484 21.9727 -17.7734 21.9727 -29.6387 L 21.9727 -56.0059 C 21.9727 -56.8848 22.168 -57.2754 22.9492 -57.6172 C 29.1992 -60.1074 39.7461 -63.4277 45.9961 -65.918 C 46.4844 -66.1133 46.9238 -66.2109 47.3145 -66.2109 C 47.7051 -66.2109 48.1445 -66.1133 48.6328 -65.918 C 54.834 -63.4277 65.2344 -59.7656 71.6309 -57.6172 C 72.4609 -57.3242 72.6074 -56.8848 72.6074 -56.0059 L 72.6074 -29.6387 C 72.6074 -17.7734 67.3828 -14.6484 49.7559 -4.15039 C 48.4863 -3.36914 47.9004 -3.22266 47.3145 -3.22266 Z M 47.3145 -28.3203 C 49.3652 -28.3203 50.5859 -29.4922 50.5859 -31.6895 L 51.2207 -51.709 C 51.2695 -53.9062 49.5117 -55.5176 47.2656 -55.5176 C 44.9707 -55.5176 43.3105 -53.9551 43.3594 -51.7578 L 43.8965 -31.6895 C 43.9453 -29.4922 45.166 -28.3203 47.3145 -28.3203 Z M 47.3145 -15.5273 C 49.707 -15.5273 51.8066 -17.4316 51.8066 -19.8242 C 51.8066 -22.2656 49.7559 -24.1211 47.3145 -24.1211 C 44.873 -24.1211 42.8223 -22.2168 42.8223 -19.8242 C 42.8223 -17.4805 44.9219 -15.5273 47.3145 -15.5273 Z"/>
  </g>
  <g id="Light-S" transform="matrix(1 0 0 1 1107.28 696)">
   <path d="M 45.8496 4.10156 C 46.5332 4.10156 47.5098 3.85742 48.3887 3.32031 C 70.0195 -8.98438 77.2461 -13.8672 77.2461 -27.4414 L 77.2461 -56.5918 C 77.2461 -60.6445 75.6348 -61.9629 72.2656 -63.3789 C 67.2852 -65.3809 53.9551 -70.2637 48.9746 -71.9727 C 47.9492 -72.3145 46.9238 -72.5586 45.8496 -72.5586 C 44.8242 -72.5586 43.75 -72.2168 42.7246 -71.9727 C 37.7441 -70.4102 24.4141 -65.3809 19.4336 -63.3789 C 16.0645 -62.0117 14.4531 -60.6445 14.4531 -56.5918 L 14.4531 -27.4414 C 14.4531 -13.8672 21.7773 -9.08203 43.3105 3.32031 C 44.2383 3.85742 45.2148 4.10156 45.8496 4.10156 Z M 45.8496 -2.00195 C 45.2148 -2.00195 44.5801 -2.29492 43.5547 -2.88086 C 25.8301 -13.7695 19.8242 -16.9434 19.8242 -28.6621 L 19.8242 -55.6152 C 19.8242 -57.2266 20.1172 -57.8613 21.3867 -58.3496 C 26.8066 -60.498 38.7207 -64.6484 44.1895 -66.748 C 44.8242 -67.041 45.4102 -67.1875 45.8496 -67.1875 C 46.2891 -67.1875 46.875 -67.041 47.5586 -66.748 C 52.9785 -64.6484 64.7949 -60.3027 70.3613 -58.3496 C 71.582 -57.8613 71.875 -57.2266 71.875 -55.6152 L 71.875 -28.6621 C 71.875 -16.9434 65.8203 -13.8184 48.1445 -2.88086 C 47.168 -2.29492 46.4844 -2.00195 45.8496 -2.00195 Z M 45.8496 -28.3691 C 47.5098 -28.3691 48.4375 -29.3457 48.4863 -31.1523 L 48.9746 -51.4648 C 49.0234 -53.2227 47.6562 -54.541 45.8008 -54.541 C 43.9453 -54.541 42.6758 -53.2227 42.6758 -51.4648 L 43.1641 -31.1523 C 43.2129 -29.3457 44.1406 -28.3691 45.8496 -28.3691 Z M 45.8496 -16.2598 C 47.9004 -16.2598 49.707 -17.8711 49.707 -19.9219 C 49.707 -22.0215 47.9492 -23.6328 45.8496 -23.6328 C 43.75 -23.6328 42.041 -21.9727 42.041 -19.9219 C 42.041 -17.9199 43.7988 -16.2598 45.8496 -16.2598 Z"/>
  </g>
  <g id="Thin-S" transform="matrix(1 0 0 1 812.501 696)">
   <path d="M 43.9453 3.22266 C 44.7266 3.22266 45.7031 2.83203 46.4355 2.39258 C 67.5293 -10.2051 74.1699 -14.3555 74.1699 -26.7578 L 74.1699 -55.6641 C 74.1699 -59.8145 72.9492 -61.1816 69.0918 -62.6953 C 62.7441 -65.1367 53.2227 -68.8477 46.8262 -71.0938 C 45.8008 -71.4355 44.9219 -71.6797 43.9453 -71.6797 C 42.9688 -71.6797 42.041 -71.3867 41.0645 -71.0938 C 34.668 -68.7988 25.0977 -65.1367 18.75 -62.6953 C 14.9414 -61.2305 13.6719 -59.8145 13.6719 -55.6641 L 13.6719 -26.7578 C 13.6719 -14.3555 20.459 -10.4004 41.4062 2.39258 C 42.1387 2.83203 43.1152 3.22266 43.9453 3.22266 Z M 43.9453 -0.439453 C 43.2617 -0.439453 42.4805 -0.878906 41.8457 -1.26953 C 24.0234 -12.6465 16.9434 -15.8203 16.9434 -27.2949 L 16.9434 -55.127 C 16.9434 -57.666 17.4316 -58.5938 19.2383 -59.3262 C 23.6328 -61.084 37.3535 -66.2109 41.7969 -67.8711 C 42.627 -68.2617 43.4082 -68.457 43.9453 -68.457 C 44.4336 -68.457 45.166 -68.2129 46.0938 -67.8711 C 50.4883 -66.2109 64.209 -60.9863 68.6035 -59.3262 C 70.459 -58.5938 70.8984 -57.666 70.8984 -55.127 L 70.8984 -27.2949 C 70.8984 -15.8203 63.7695 -12.7441 45.9961 -1.26953 C 45.3613 -0.878906 44.5801 -0.439453 43.9453 -0.439453 Z M 43.9453 -28.418 C 44.9707 -28.418 45.6543 -29.1504 45.6543 -30.4199 L 45.9961 -51.123 C 45.9961 -52.3438 45.166 -53.1738 43.8965 -53.1738 C 42.6758 -53.1738 41.8457 -52.3438 41.8457 -51.123 L 42.1875 -30.4199 C 42.1875 -29.1992 42.8711 -28.418 43.9453 -28.418 Z M 43.9453 -17.1387 C 45.5566 -17.1387 46.9238 -18.5059 46.9238 -20.0684 C 46.9238 -21.6797 45.5566 -22.998 43.9453 -22.998 C 42.2852 -22.998 40.9668 -21.6797 40.9668 -20.0684 C 40.9668 -18.5059 42.2852 -17.1387 43.9453 -17.1387 Z"/>
  </g>
  <g id="Ultralight-S" transform="matrix(1 0 0 1 516.767 696)">
   <path d="M 42.9199 2.7832 C 43.7988 2.7832 44.7754 2.29492 45.459 1.9043 C 66.3086 -10.8398 72.6074 -14.6484 72.6074 -26.416 L 72.6074 -55.127 C 72.6074 -59.375 71.5332 -60.791 67.4805 -62.3535 C 60.4492 -65.0391 52.832 -68.1152 45.7031 -70.6055 C 44.7266 -70.9473 43.8965 -71.1914 42.9199 -71.1914 C 41.9922 -71.1914 41.1621 -70.9473 40.1855 -70.6055 C 33.1055 -67.9688 25.4395 -65.0391 18.4082 -62.3535 C 14.3555 -60.8398 13.2812 -59.375 13.2812 -55.127 L 13.2812 -26.416 C 13.2812 -14.6484 19.7754 -11.1328 40.4297 1.9043 C 41.1133 2.29492 42.0898 2.7832 42.9199 2.7832 Z M 42.9199 0.341797 C 42.2852 0.341797 41.4551 -0.0976562 40.9668 -0.439453 C 23.0957 -12.0605 15.4785 -15.2832 15.4785 -26.6113 L 15.4785 -54.8828 C 15.4785 -57.9102 16.0156 -58.9844 18.1641 -59.8633 C 22.0215 -61.377 36.6699 -66.9922 40.5762 -68.457 C 41.5039 -68.8965 42.4316 -69.1406 42.9199 -69.1406 C 43.457 -69.1406 44.3359 -68.8477 45.3125 -68.457 C 49.2188 -66.9922 63.8672 -61.3281 67.7246 -59.8633 C 69.873 -58.9844 70.4102 -57.9102 70.4102 -54.8828 L 70.4102 -26.6113 C 70.4102 -15.2832 62.6953 -12.207 44.9219 -0.439453 C 44.4336 -0.0976562 43.6035 0.341797 42.9199 0.341797 Z M 42.9199 -28.4668 C 43.7012 -28.4668 44.2383 -29.0527 44.2383 -30.0293 L 44.4824 -50.9277 C 44.4824 -51.8555 43.8965 -52.4902 42.9199 -52.4902 C 41.9922 -52.4902 41.4062 -51.8555 41.4062 -50.9277 L 41.6504 -30.0293 C 41.6504 -29.0527 42.1875 -28.4668 42.9199 -28.4668 Z M 42.9199 -17.627 C 44.3848 -17.627 45.5078 -18.8477 45.5078 -20.166 C 45.5078 -21.5332 44.3848 -22.7051 42.9199 -22.7051 C 41.5039 -22.7051 40.3809 -21.5332 40.3809 -20.166 C 40.3809 -18.8477 41.5039 -17.627 42.9199 -17.627 Z"/>
  </g>
 </g>
</svg>
